PathFileType	4	(X/Y/Z)	/Users/itak/Documents/Research/Walk-IL/dataset/trc/00164_00008.trc
DataRate	CameraRate	NumFrames	NumMarkers	Units	OrigDataRate	OrigDataStartFrame	OrigNumFrames
100.000000	100.000000	4	53	mm	100.000000	76	608
Frame#	Time	RPSI			LPSI			L3			STRN			T10			C7			CLAV			RBAK			LBAK			LSHO			LUPA			LAEL			LAOL			LWTS			LWPS			LFRA			LIFD			LHPS			LHTS			RSHO			RUPA			RAEL			RAOL			RWTS			RWPS			RFRA			RIFD			RHTS			RHPS			RBHD			LFHD			RFHD			LBHD			LHIP			RHIP			RASI			LASI			LKNE			LTHI			LANK			LTIP			LTOE			LMT1			LMT5			LHEE			RKNE			RTHI			RANK			RTIP			RTOE			RMT1			RMT5			RHEE			
		X1	Y1	Z1	X2	Y2	Z2	X3	Y3	Z3	X4	Y4	Z4	X5	Y5	Z5	X6	Y6	Z6	X7	Y7	Z7	X8	Y8	Z8	X9	Y9	Z9	X10	Y10	Z10	X11	Y11	Z11	X12	Y12	Z12	X13	Y13	Z13	X14	Y14	Z14	X15	Y15	Z15	X16	Y16	Z16	X17	Y17	Z17	X18	Y18	Z18	X19	Y19	Z19	X20	Y20	Z20	X21	Y21	Z21	X22	Y22	Z22	X23	Y23	Z23	X24	Y24	Z24	X25	Y25	Z25	X26	Y26	Z26	X27	Y27	Z27	X28	Y28	Z28	X29	Y29	Z29	X30	Y30	Z30	X31	Y31	Z31	X32	Y32	Z32	X33	Y33	Z33	X34	Y34	Z34	X35	Y35	Z35	X36	Y36	Z36	X37	Y37	Z37	X38	Y38	Z38	X39	Y39	Z39	X40	Y40	Z40	X41	Y41	Z41	X42	Y42	Z42	X43	Y43	Z43	X44	Y44	Z44	X45	Y45	Z45	X46	Y46	Z46	X47	Y47	Z47	X48	Y48	Z48	X49	Y49	Z49	X50	Y50	Z50	X51	Y51	Z51	X52	Y52	Z52	X53	Y53	Z53	

77	0.76	-1954.282470703125	1057.80029296875	-44.61056518554688	-1941.320678710938	1055.983642578125	-167.4041290283203	-1946.759765625	1093.64453125	-104.6980667114258	-1687.706665039062	1304.210083007812	-93.79434967041016	-1980.632690429688	1244.635986328125	-114.4318618774414	-1925.245483398438	1516.95947265625	-120.3659439086914	-1720.487182617188	1417.1494140625	-104.3739700317383	-1991.968017578125	1337.930053710938	-17.6160888671875	-1923.885131835938	1491.571166992188	-222.5103149414062	-1840.7177734375	1481.130981445312	-295.813232421875	-1858.14697265625	1347.829467773438	-372.3817749023438	-1824.133178710938	1128.434326171875	-385.3373413085938	-1885.047119140625	1112.246948242188	-324.0242004394531	-1710.32177734375	904.6245727539062	-321.8298950195312	-1778.097900390625	878.0234985351562	-381.4064636230469	-1800.805053710938	1018.771057128906	-392.9845886230469	-1690.460327148438	721.116455078125	-291.744384765625	-1753.591064453125	809.8548583984375	-370.4833679199219	-1691.223876953125	826.6321411132812	-336.5950622558594	-1873.342895507812	1496.630737304688	63.33847045898438	-1894.614135742188	1428.909301757812	132.3958740234375	-1893.5341796875	1138.763427734375	184.4666290283203	-1899.495239257812	1132.145141601562	85.40108489990234	-1742.23681640625	918.2686157226562	160.3408966064453	-1815.463623046875	898.3429565429688	210.4682464599609	-1863.8564453125	1067.41259765625	201.5640716552734	-1714.211303710938	731.6131591796875	138.6813354492188	-1710.334350585938	827.044921875	167.6799468994141	-1780.7216796875	815.7617797851562	205.2987518310547	-1893.865844726562	1679.34375	-42.3687744140625	-1737.556640625	1743.004272460938	-181.6818237304688	-1731.953857421875	1747.709350585938	-52.20635223388672	-1905.732055664062	1680.828002929688	-179.8220520019531	-1829.760131835938	989.7476196289062	-277.6702270507812	-1808.404418945312	1014.690124511719	92.321044921875	-1723.318481445312	1040.589233398438	41.8567008972168	-1707.415283203125	1025.853759765625	-215.8265533447266	-1838.557006835938	494.6447448730469	-250.2874145507812	-1821.336059570312	636.3131103515625	-274.8401794433594	-1932.389770507812	42.665283203125	-269.9180297851562	-1885.159423828125	277.2350463867188	-273.4520568847656	-1713.309692382812	39.16865921020508	-256.6110229492188	-1760.6162109375	37.81033325195312	-205.0423126220703	-1826.87646484375	33.60300064086914	-315.0016174316406	-1980	41.14779281616211	-197.0156555175781	-1839.746337890625	514.87255859375	78.65774536132812	-1774.005859375	781.3934936523438	107.7902526855469	-1932.3408203125	38.32416915893555	76.46399688720703	-1834.165893554688	399.5372009277344	64.08956146240234	-1705.435546875	38.01930618286133	69.49615478515625	-1756.1044921875	38.57168960571289	16.94468116760254	-1825.71533203125	33.2879524230957	124.1856918334961	-1974.80322265625	38.22387313842773	4.41169261932373	
78	0.77	-1954.240600585938	1057.81494140625	-44.60623168945312	-1941.36572265625	1056.051635742188	-167.4329986572266	-1946.8427734375	1093.790771484375	-104.7936172485352	-1687.611328125	1304.215454101562	-93.75962829589844	-1980.576416015625	1244.683959960938	-114.4281768798828	-1925.121459960938	1516.98779296875	-120.3486557006836	-1720.388916015625	1417.169311523438	-104.3025054931641	-1991.899169921875	1337.95556640625	-17.60677528381348	-1923.766845703125	1491.600952148438	-222.4970092773438	-1840.497436523438	1481.208984375	-295.7517700195312	-1857.94287109375	1347.920288085938	-372.3903503417969	-1824.02490234375	1128.56103515625	-385.5287475585938	-1884.934326171875	1112.361572265625	-324.2481384277344	-1710.436157226562	904.6171264648438	-322.1097106933594	-1778.148193359375	878.1260986328125	-381.8094787597656	-1800.703002929688	1018.89990234375	-393.2339172363281	-1690.57470703125	721.1019287109375	-292.1930541992188	-1753.689086914062	809.916259765625	-370.9212951660156	-1691.347412109375	826.5885620117188	-336.9139099121094	-1873.282470703125	1496.626220703125	63.39445495605469	-1894.573486328125	1428.88671875	132.4305267333984	-1893.433471679688	1138.693969726562	184.3291625976562	-1899.394165039062	1132.130493164062	85.27507019042969	-1741.913452148438	918.3483276367188	160.0963287353516	-1815.1650390625	898.2820434570312	210.1432800292969	-1863.718139648438	1067.317626953125	201.3873748779297	-1713.741821289062	731.6942138671875	138.3028106689453	-1709.91064453125	827.1187744140625	167.3715972900391	-1780.4521484375	815.7215576171875	204.9212799072266	-1893.574584960938	1679.402954101562	-42.17861175537109	-1737.2265625	1742.959350585938	-181.4676361083984	-1731.592407226562	1747.51025390625	-51.94919204711914	-1905.41552734375	1681.027221679688	-179.6642456054688	-1829.738403320312	989.7737426757812	-277.663330078125	-1808.39404296875	1014.682861328125	92.31363677978516	-1723.2841796875	1040.577392578125	41.85366058349609	-1707.391967773438	1025.866577148438	-215.8303833007812	-1838.5498046875	494.6414794921875	-250.3052215576172	-1821.333984375	636.3154907226562	-274.8782653808594	-1932.380493164062	42.67708587646484	-269.9178466796875	-1885.148315429688	277.2311706542969	-273.4605712890625	-1713.306640625	39.15766525268555	-256.6117553710938	-1760.6103515625	37.81231689453125	-205.0394439697266	-1826.87646484375	33.60543441772461	-314.9978942871094	-1979.998413085938	41.15471649169922	-197.0160369873047	-1839.839477539062	514.8612060546875	78.63264465332031	-1774.03466796875	781.3462524414062	107.7348861694336	-1932.347534179688	38.31983184814453	76.46126556396484	-1834.234130859375	399.5359497070312	64.08408355712891	-1705.440185546875	38.0224609375	69.49485778808594	-1756.108276367188	38.57268142700195	16.94557952880859	-1825.715087890625	33.28501892089844	124.1877670288086	-1974.801879882812	38.20857238769531	4.417239189147949	
79	0.78	-1954.200927734375	1057.8359375	-44.59978485107422	-1941.3984375	1056.125244140625	-167.4599456787109	-1946.901123046875	1093.922729492188	-104.8633270263672	-1687.523193359375	1304.223022460938	-93.72669219970703	-1980.518676757812	1244.740966796875	-114.4169692993164	-1924.999755859375	1517.024780273438	-120.3401412963867	-1720.27392578125	1417.187133789062	-104.2211990356445	-1991.818725585938	1337.991943359375	-17.58832359313965	-1923.647338867188	1491.636108398438	-222.4891357421875	-1840.27099609375	1481.287719726562	-295.6881713867188	-1857.720947265625	1348.006103515625	-372.3877868652344	-1823.896362304688	1128.68701171875	-385.706787109375	-1884.793701171875	1112.4755859375	-324.4552917480469	-1710.511352539062	904.6028442382812	-322.3972778320312	-1778.182373046875	878.2274169921875	-382.2236633300781	-1800.576293945312	1019.032348632812	-393.4749145507812	-1690.67919921875	721.07958984375	-292.6665649414062	-1753.77490234375	809.9725341796875	-371.3760070800781	-1691.459350585938	826.5322265625	-337.2459411621094	-1873.21337890625	1496.634521484375	63.44948196411133	-1894.520263671875	1428.881103515625	132.4723815917969	-1893.340942382812	1138.638916015625	184.2095489501953	-1899.287475585938	1132.1318359375	85.16680145263672	-1741.574584960938	918.4584350585938	159.8519592285156	-1814.82568359375	898.24072265625	209.8175506591797	-1863.588745117188	1067.246459960938	201.2333831787109	-1713.219604492188	731.8072509765625	137.9050750732422	-1709.46923828125	827.2182006835938	167.0430297851562	-1780.165405273438	815.7133178710938	204.525390625	-1893.275146484375	1679.452392578125	-41.99650573730469	-1736.882446289062	1742.918701171875	-181.2446746826172	-1731.216186523438	1747.30810546875	-51.68988037109375	-1905.079223632812	1681.2216796875	-179.5151214599609	-1829.728149414062	989.8032836914062	-277.6617736816406	-1808.379028320312	1014.677124023438	92.30393981933594	-1723.248657226562	1040.56494140625	41.85107040405273	-1707.37646484375	1025.879150390625	-215.8377990722656	-1838.551391601562	494.6374816894531	-250.3288879394531	-1821.340454101562	636.3179321289062	-274.9256591796875	-1932.364868164062	42.66397476196289	-269.9059753417969	-1885.141479492188	277.2279663085938	-273.4725952148438	-1713.302612304688	39.14824295043945	-256.6110534667969	-1760.606201171875	37.81443786621094	-205.0365295410156	-1826.874389648438	33.60577392578125	-314.9949645996094	-1979.99755859375	41.15907287597656	-197.017578125	-1839.92578125	514.8499755859375	78.60528564453125	-1774.060302734375	781.3001098632812	107.6774597167969	-1932.3544921875	38.3148078918457	76.46314239501953	-1834.28857421875	399.5335083007812	64.07810211181641	-1705.447875976562	38.0240364074707	69.49160003662109	-1756.112915039062	38.57394027709961	16.94589424133301	-1825.714599609375	33.28447341918945	124.1892318725586	-1974.801025390625	38.188232421875	4.423780918121338	
80	0.79	-1954.164672851562	1057.86328125	-44.59270477294922	-1941.4130859375	1056.202514648438	-167.4849548339844	-1946.928466796875	1094.033813476562	-104.9053039550781	-1687.440673828125	1304.232055664062	-93.69539642333984	-1980.458251953125	1244.806640625	-114.4007720947266	-1924.880737304688	1517.06982421875	-120.339469909668	-1720.140380859375	1417.201538085938	-104.129768371582	-1991.726318359375	1338.037841796875	-17.5611572265625	-1923.521240234375	1491.678344726562	-222.4837188720703	-1840.040649414062	1481.365600585938	-295.621826171875	-1857.484985351562	1348.090942382812	-372.3765563964844	-1823.748901367188	1128.812866210938	-385.8689270019531	-1884.626586914062	1112.589111328125	-324.6406555175781	-1710.544799804688	904.5817260742188	-322.6926879882812	-1778.203247070312	878.3272094726562	-382.6421813964844	-1800.431884765625	1019.166931152344	-393.7064208984375	-1690.7705078125	721.0499877929688	-293.1657409667969	-1753.850952148438	810.0244750976562	-371.843017578125	-1691.56396484375	826.4736328125	-337.5991821289062	-1873.1357421875	1496.653076171875	63.50232315063477	-1894.452514648438	1428.890014648438	132.5211486816406	-1893.253051757812	1138.597045898438	184.1127624511719	-1899.177612304688	1132.1484375	85.07949829101562	-1741.227783203125	918.5885009765625	159.6073455810547	-1814.439697265625	898.21826171875	209.4970245361328	-1863.464233398438	1067.19775390625	201.1059265136719	-1712.656127929688	731.9515991210938	137.4902496337891	-1709.022094726562	827.3385009765625	166.6982116699219	-1779.852783203125	815.7347412109375	204.1204986572266	-1892.971435546875	1679.493774414062	-41.82739639282227	-1736.517822265625	1742.879516601562	-181.0091247558594	-1730.829223632812	1747.107299804688	-51.43561935424805	-1904.733520507812	1681.412963867188	-179.3794555664062	-1829.72607421875	989.83447265625	-277.6658935546875	-1808.360229492188	1014.67333984375	92.29309844970703	-1723.213989257812	1040.552001953125	41.84905624389648	-1707.36865234375	1025.889892578125	-215.8480224609375	-1838.564208984375	494.6332397460938	-250.3565826416016	-1821.35400390625	636.318603515625	-274.97607421875	-1932.343383789062	42.62295913696289	-269.8811950683594	-1885.140502929688	277.226318359375	-273.4884643554688	-1713.29833984375	39.14170455932617	-256.6095275878906	-1760.603881835938	37.81676864624023	-205.0348968505859	-1826.8701171875	33.6042594909668	-314.9938354492188	-1979.997314453125	41.16032791137695	-197.0202789306641	-1839.996826171875	514.8399047851562	78.57709503173828	-1774.075317382812	781.2613525390625	107.6157760620117	-1932.360229492188	38.30857086181641	76.46958160400391	-1834.323852539062	399.5302734375	64.0718994140625	-1705.457885742188	38.02413177490234	69.48668670654297	-1756.118530273438	38.57551574707031	16.94612503051758	-1825.714111328125	33.28691864013672	124.1897430419922	-1974.801025390625	38.16477584838867	4.430151462554932	
